PathFileType	4	(X/Y/Z)	Kaydara	
DataRate	CameraRate	NumFrames	NumMarkers	Units	OrigDataRate	OrigDataStartFrame	OrigNumFrames	
60.00	60.00	4	74	mm	60.00	2651	161	
Frame#	Time	Z_lasi			Z_rasi			Z_rpsi			Z_lpsi			Z_fneck			Z_bneck			Z_fhead			Z_rhead			Z_lhead			Z_rshld			Z_relbtop			Z_relbext			Z_relblow			Z_rwrext			Z_rwrtop			Z_rwrlow			Z_lshld			Z_lelbext			Z_lelblow			Z_lelbtop			Z_lwrext			Z_lwrtop			Z_rtopleg			Z_ltopleg			Z_rkneefr			Z_rkneebk			Z_rkneeis			Z_lkneefr			Z_lknssbk			Z_lkneeis			Z_rankfr			Z_rankis			Z_rankbk			Z_lankfr			Z_lankbk			Z_lankis			A_lasi			A_rasi			A_rpsi			A_lpsi			A_fneck			A_bneck			A_fhead			A_rhead			A_lhead			A_rshld			A_relbtop			A_relbext			A_relblow			A_rwrext			A_rwrtop			A_rwrlow			A_lshld			A_lelbext			A_lelblow			A_lelbtop			A_lwrext			A_lwrtop			A_lwrlow			A_rtopleg			A_ltopleg			A_rkneefr			A_rkneebk			A_rkneeis			A_lkneefr			A_lknssbk			A_lkneeis			A_rankfr			A_rankis			A_rankbk			A_lankfr			A_lankbk			A_lankis			Z_lwrlow			
		X1	Y1	Z1	X2	Y2	Z2	X3	Y3	Z3	X4	Y4	Z4	X5	Y5	Z5	X6	Y6	Z6	X7	Y7	Z7	X8	Y8	Z8	X9	Y9	Z9	X10	Y10	Z10	X11	Y11	Z11	X12	Y12	Z12	X13	Y13	Z13	X14	Y14	Z14	X15	Y15	Z15	X16	Y16	Z16	X17	Y17	Z17	X18	Y18	Z18	X19	Y19	Z19	X20	Y20	Z20	X21	Y21	Z21	X22	Y22	Z22	X23	Y23	Z23	X24	Y24	Z24	X25	Y25	Z25	X26	Y26	Z26	X27	Y27	Z27	X28	Y28	Z28	X29	Y29	Z29	X30	Y30	Z30	X31	Y31	Z31	X32	Y32	Z32	X33	Y33	Z33	X34	Y34	Z34	X35	Y35	Z35	X36	Y36	Z36	X37	Y37	Z37	X38	Y38	Z38	X39	Y39	Z39	X40	Y40	Z40	X41	Y41	Z41	X42	Y42	Z42	X43	Y43	Z43	X44	Y44	Z44	X45	Y45	Z45	X46	Y46	Z46	X47	Y47	Z47	X48	Y48	Z48	X49	Y49	Z49	X50	Y50	Z50	X51	Y51	Z51	X52	Y52	Z52	X53	Y53	Z53	X54	Y54	Z54	X55	Y55	Z55	X56	Y56	Z56	X57	Y57	Z57	X58	Y58	Z58	X59	Y59	Z59	X60	Y60	Z60	X61	Y61	Z61	X62	Y62	Z62	X63	Y63	Z63	X64	Y64	Z64	X65	Y65	Z65	X66	Y66	Z66	X67	Y67	Z67	X68	Y68	Z68	X69	Y69	Z69	X70	Y70	Z70	X71	Y71	Z71	X72	Y72	Z72	X73	Y73	Z73	X74	Y74	Z74	

41	44.167	-758.01529	1097.91954	-413.21823	-863.45871	1106.99059	-232.15290	-1048.45787	1120.46242	-299.44790	-926.71524	1110.81924	-517.65644	-871.78696	1459.23050	-343.87012	-953.86238	1510.34027	-424.86076	-855.99937	1678.31848	-280.12680	-1007.39975	1646.25626	-344.63940	-896.61728	1650.13412	-442.90581	-1062.24205	1454.22287	-252.63620	-1068.60313	1284.23096	-73.49928	-1086.25122	1224.04663	-10.72220	-1054.04076	1184.24423	-54.45875	-904.80469	1348.40485	-22.06726	-909.67285	1352.28485	-68.26085	-884.44824	1315.04898	-77.57135	-812.21741	1452.54486	-541.15181	-780.55771	1135.23117	-644.47968	-806.51443	1116.35521	-577.78847	-721.38054	1143.07312	-596.96827	-679.25919	904.04030	-526.87080	-656.10596	898.64388	-568.15651	-1042.72606	923.18329	-236.73077	-789.55254	901.82091	-504.79237	-949.52721	418.08689	-257.98168	-1033.47755	448.17066	-273.80936	-937.55852	435.34286	-354.12666	-782.59338	430.96748	-460.60890	-870.51804	461.98696	-515.71434	-847.99606	423.66123	-388.95786	-988.19580	179.91339	-289.75994	-958.61641	180.61989	-349.14375	-1043.69308	178.29163	-339.80076	-838.83286	168.05820	-498.87589	-919.28123	175.92127	-495.60081	-870.47684	175.77892	-435.64903	224.52049	1037.96227	295.88552	259.81501	1051.32401	142.60115	420.72533	1049.84215	167.34697	345.15217	1048.72910	335.56973	287.22351	1378.35114	236.11935	423.00835	1419.30206	261.08875	246.77443	1602.42462	195.90658	407.79472	1554.30145	158.36411	361.23833	1562.98721	314.53918	404.18739	1366.19614	82.22088	303.62986	1147.41737	-29.32502	304.65656	1084.77699	-11.40727	265.35889	1146.33072	15.02160	136.27584	1266.57913	-90.18100	99.67630	1245.33096	-74.26460	146.19402	1287.05902	-54.75747	281.35397	1370.09735	394.47536	253.53895	1071.03661	451.29662	301.63189	1059.10385	441.34239	246.03563	1066.19507	397.82272	181.40451	848.00888	432.84187	145.42227	865.64018	408.68797	198.18230	852.24533	393.03398	388.28377	882.66190	71.59540	255.66441	884.43520	390.39658	377.62363	414.69807	209.55776	429.06197	454.68784	121.28748	331.21243	408.46069	109.50056	366.04237	454.43996	242.13858	331.68526	474.30733	356.84750	264.43699	424.40083	265.44628	388.74706	171.61453	101.55620	391.35201	164.22567	172.76871	464.51607	161.77361	130.25047	310.39845	168.14062	297.62857	357.96795	168.65658	349.37721	381.63231	175.31124	266.52493	-693.69125	891.78314	-594.69017 
42	44.183	-755.98160	1098.22563	-413.45539	-862.51984	1107.48077	-233.00112	-1047.10617	1120.42549	-301.21466	-924.23409	1110.67184	-518.79261	-871.12854	1459.31534	-344.77333	-952.67090	1510.49042	-426.61472	-856.12816	1676.98364	-278.73262	-1007.18376	1646.49750	-345.90984	-894.57214	1651.00708	-442.45785	-1060.29671	1455.33630	-255.53862	-1066.08849	1293.86795	-72.26810	-1080.25436	1237.99919	-5.48078	-1047.76390	1195.94124	-46.93130	-905.69427	1368.93936	-33.62621	-912.20222	1368.16345	-79.38476	-884.88052	1331.13922	-86.36989	-810.23743	1452.85294	-541.97395	-776.88568	1135.88165	-644.92699	-803.22716	1116.65337	-578.55663	-717.95723	1143.66394	-597.19856	-675.45708	904.49913	-527.72133	-652.13821	899.14131	-569.39335	-1041.38458	923.38928	-238.14459	-787.29523	901.77498	-505.38486	-948.71246	418.10780	-258.48324	-1032.60483	448.41904	-274.47542	-936.57806	435.32234	-354.37759	-782.45567	430.95840	-461.06411	-870.18875	462.12101	-516.34605	-847.95288	423.63277	-389.33414	-988.00377	180.03616	-289.84753	-958.29567	180.57522	-349.23161	-1043.39561	178.47713	-339.99016	-838.75023	167.96686	-498.94630	-919.19800	175.94688	-495.99586	-870.51247	175.83050	-435.96340	223.92145	1037.96356	295.70032	259.44298	1051.39503	142.40792	420.62603	1049.83719	167.18643	344.24770	1048.69446	335.34245	287.35130	1378.43796	236.15648	423.13614	1419.38889	261.12591	245.93962	1602.07703	196.53826	407.16309	1555.01572	158.40944	361.16924	1563.07999	314.74174	403.79204	1365.70587	82.20779	298.94760	1148.83995	-29.51469	299.06334	1086.53358	-11.09994	261.12020	1148.85475	15.43803	129.07134	1266.07773	-91.79829	94.14721	1247.62901	-70.03602	142.98145	1290.22842	-60.12847	281.67002	1370.83420	394.29768	253.59688	1071.70898	451.07597	301.53498	1059.77715	441.20728	246.01452	1066.89461	397.63733	181.28344	848.73840	432.67948	145.40371	866.22032	408.53676	197.85137	852.85851	392.33433	388.12916	882.66251	71.60093	255.11013	884.30298	390.17212	377.22340	414.71642	209.59164	428.70628	454.69280	121.31965	330.85022	408.40885	109.39244	365.40005	454.14288	241.61530	330.84824	474.31309	355.90378	263.36895	424.38778	264.51084	388.68076	171.59130	101.54177	391.24855	164.17372	172.73941	464.47727	161.84559	130.25311	310.07460	167.97323	297.29832	357.81429	168.67722	349.08947	381.43394	175.23954	266.41161	-689.65141	892.40814	-596.10394 
43	44.200	-754.17862	1098.50006	-413.85742	-861.47560	1107.90993	-233.97316	-1046.01677	1120.45044	-303.01130	-921.93016	1110.49843	-519.99641	-870.34813	1459.27567	-345.70801	-951.36566	1510.47928	-428.18882	-856.11023	1675.84534	-277.79716	-1006.17287	1646.39435	-347.49939	-892.25945	1651.76010	-442.15656	-1058.10745	1456.26328	-257.91851	-1064.13597	1302.51556	-71.28297	-1074.57024	1250.71877	-1.61567	-1040.86517	1207.39548	-40.45586	-908.63045	1389.06357	-42.65315	-915.66475	1383.78769	-88.14219	-885.90721	1348.51547	-92.86895	-808.45627	1453.12286	-542.97733	-773.33481	1136.34476	-645.73563	-799.59267	1116.77338	-579.15199	-714.64584	1144.24789	-597.75394	-672.15858	904.76746	-528.49964	-648.12286	899.85413	-570.39738	-1040.03777	923.57277	-239.81014	-784.94484	901.69121	-505.98267	-947.64542	417.95807	-259.07053	-1031.83998	448.57040	-275.02249	-935.61844	435.32921	-354.84512	-782.22244	430.86224	-461.51390	-869.71886	462.23141	-517.15919	-847.78984	423.53779	-389.65061	-987.60933	180.10183	-290.08926	-957.98790	180.49168	-349.33495	-1043.08624	178.71111	-340.30983	-838.57407	167.90640	-499.11850	-919.09439	175.88514	-496.26411	-870.50354	175.89537	-436.17817	222.89816	1037.99362	295.39314	259.09668	1051.47018	142.40683	420.09594	1049.75174	167.43528	343.65410	1048.54156	335.24284	287.65429	1378.51685	236.09493	423.43910	1419.46793	261.06436	245.15795	1601.65161	197.29294	406.46461	1555.74539	158.35166	361.14754	1563.13339	314.92579	403.44376	1365.56381	82.45422	293.87444	1151.71494	-30.86287	293.44593	1089.71809	-12.26354	256.99581	1152.19879	14.36658	120.23494	1266.39061	-93.19155	87.83882	1249.64119	-66.81931	137.24332	1292.87598	-65.18055	281.61613	1371.60156	394.17515	253.60325	1072.39395	450.93525	301.53959	1060.36797	441.08086	245.91827	1067.60841	397.49897	181.26556	849.41261	432.43652	145.27666	867.07222	408.31776	197.59230	853.51379	391.81778	387.93056	882.68059	71.66454	254.31713	884.04480	390.07164	376.71688	414.68384	209.68632	428.43884	454.73358	121.46544	330.65758	408.39252	109.32136	364.93496	453.98365	241.34951	329.96758	474.32079	355.40680	262.57790	424.22298	263.86795	388.69625	171.63986	101.49407	391.12503	164.20156	172.73876	464.45065	161.91399	130.29264	309.81678	167.85091	297.05053	357.53078	168.77363	348.90999	381.28117	175.25606	266.30690	-685.44281	893.09746	-597.40295 
44	44.217	-752.55859	1098.56590	-414.55608	-860.33730	1108.21426	-235.00814	-1044.56284	1120.20042	-304.74997	-919.75357	1110.21255	-521.29181	-869.34647	1459.02603	-346.83052	-949.99504	1510.41382	-429.73183	-855.96329	1674.80560	-276.94681	-1005.35568	1646.35757	-349.23389	-889.85878	1652.33597	-442.08015	-1055.78430	1457.30148	-259.93977	-1062.18445	1309.42673	-70.65234	-1069.34036	1261.26976	0.95926	-1032.81174	1218.10135	-35.22742	-913.78807	1408.94012	-48.80512	-920.19257	1399.80377	-93.76829	-887.24876	1367.40982	-96.08049	-806.78307	1453.21030	-544.06532	-769.93820	1136.61972	-646.68076	-798.27621	1117.27089	-582.05078	-711.55647	1144.73572	-598.47210	-668.41629	905.32341	-529.60735	-643.94684	900.54649	-571.41106	-1038.67104	923.62465	-241.28506	-782.75795	901.50986	-506.46961	-946.86096	417.94304	-259.53741	-1030.95314	448.78826	-275.58945	-934.61906	435.24097	-355.11459	-781.83167	430.76771	-461.95484	-869.09378	462.23183	-517.97127	-847.45735	423.46806	-390.08995	-987.42188	180.18444	-290.13836	-957.52617	180.40854	-349.60987	-1042.71545	178.83434	-340.44548	-838.41850	167.77447	-499.19712	-918.88290	175.81638	-496.49292	-870.39352	175.90914	-436.40190	221.94210	1038.10501	295.16565	258.74792	1051.66138	142.41259	419.38290	1049.58534	167.92227	343.15819	1048.59459	335.01198	288.12204	1378.58734	236.02962	423.90686	1419.53842	260.99905	244.53674	1601.18011	197.92715	405.87624	1556.59531	158.23667	361.17138	1563.14056	315.03592	403.36754	1365.71030	82.85027	288.18701	1156.33080	-33.34605	287.76321	1094.37660	-15.05968	252.37471	1156.65024	12.27247	109.66245	1267.46750	-94.55358	80.02247	1251.58798	-64.54543	128.88870	1295.49805	-69.54919	281.84738	1372.21222	393.90507	253.47797	1072.95593	450.81600	301.53309	1060.81375	440.88837	245.83651	1068.26004	397.32445	180.93218	849.97963	432.00401	144.99036	867.67868	407.80979	197.43326	854.05807	391.59786	387.72831	882.75070	71.78133	253.69188	884.74022	389.70932	376.53648	414.82857	209.73179	428.24993	454.74178	121.83043	330.63610	408.42373	109.30695	364.53373	453.91468	241.25166	329.17648	474.32404	355.01305	261.94693	424.14749	263.44234	388.73650	171.72773	101.48633	391.04031	164.25013	172.75604	464.45839	162.03907	130.36107	309.57336	167.82940	296.90802	357.23057	168.85986	348.77907	381.12812	175.32551	266.26184	-681.07071	893.72299	-598.53352 
